<?xml version="1.0" encoding="UTF-8"?>
<svg id="OBJECTS" xmlns="http://www.w3.org/2000/svg" xmlns:xlink="http://www.w3.org/1999/xlink" viewBox="0 0 98.23 101.99">
  <defs>
    <style>
      .cls-1 {
        fill: #524445;
      }

      .cls-2 {
        fill: #f5f5f5;
      }

      .cls-3 {
        clip-path: url(#clippath);
      }

      .cls-4 {
        fill: none;
      }
    </style>
    <clipPath id="clippath">
      <circle class="cls-4" cx="49.12" cy="50" r="49.12"/>
    </clipPath>
  </defs>
  <circle class="cls-2" cx="49.12" cy="49.12" r="49.12"/>
  <g class="cls-3">
    <path class="cls-1" d="M63.04,92.63s.01,0,0,0c0-4.93,0-9.78,0-14.63,0-1.93-.26-3.82-.94-5.64-.51-1.36-1.24-2.57-2.41-3.66,1.68-.3,3.26-.54,4.82-.86,2.36-.49,4.64-1.23,6.8-2.32,4.15-2.08,7.24-5.19,8.94-9.52,2.37-6.03,2.96-12.23,1.15-18.53-.68-2.37-1.88-4.49-3.48-6.37-.36-.42-.42-.75-.24-1.29,1.34-4.09,.75-8.08-.72-12.02-.18-.48-.52-.52-.92-.52-1.82-.04-3.54,.45-5.22,1.07-2.48,.91-4.8,2.15-7.02,3.57-.49,.31-.92,.42-1.52,.26-6.86-1.79-13.79-1.82-20.7-.46-2.43,.48-4.4,.37-6.52-1.05-2.56-1.71-5.47-2.84-8.57-3.31-.51-.08-.9-.13-1.21-.14l-.95,.34c-.24,.28-.4,.77-.65,1.55-1.13,3.63-1.21,7.29-.2,10.96,.15,.54,.07,.89-.28,1.31-3.03,3.57-4.43,7.73-4.5,12.38-.05,3.7,.3,7.34,1.47,10.87,2.34,7.04,7.41,11.08,14.37,13.02,2.19,.61,4.42,1.01,6.86,1.27-.68,.74-1.27,1.37-1.69,2.12-.67,1.18-1.09,2.44-1.24,3.77-.06,.54-.29,.78-.76,.98-5.73,2.33-10.8,.73-14.11-4.48-1.57-2.47-3.71-4.15-6.63-4.73-.91-.18-1.82-.2-2.7,.12-.77,.28-.91,.77-.42,1.43,.35,.48,.81,.86,1.31,1.16,2.87,1.76,4.69,4.39,5.96,7.4,1.95,4.62,5.54,6.78,10.36,7.18,2.18,.18,4.35-.05,6.53-.55,0,3.01-.05,6.35-.05,9.31,0,0,.15,9.35,12.45,9.35s12.64-9.36,12.64-9.36Z"/>
  </g>
</svg>