<?xml version="1.0" encoding="UTF-8"?>
<svg id="OBJECTS" xmlns="http://www.w3.org/2000/svg" viewBox="0 0 98.23 98.23">
  <defs>
    <style>
      .cls-1 {
        fill: #524445;
      }

      .cls-2 {
        fill: #f5f5f5;
      }
    </style>
  </defs>
  <rect class="cls-2" width="98.23" height="98.23" rx="3.94" ry="3.94"/>
  <g>
    <polygon class="cls-1" points="5.02 50.38 5.02 93.58 25.6 93.58 25.6 46.91 25.6 34.78 5.02 34.78 5.02 50.38"/>
    <path class="cls-1" d="M15.31,5.38c-5.68,0-10.29,4.61-10.29,10.29s4.61,10.29,10.29,10.29,10.29-4.61,10.29-10.29S20.99,5.38,15.31,5.38Z"/>
    <path class="cls-1" d="M92.77,52.83c-1.39-11.08-6.48-18.05-21.47-18.05-8.89,0-14.86,3.3-17.3,7.93h-.25v-7.93h-16.39v58.8h17.13v-29.14c0-7.69,1.45-15.13,10.96-15.13s10.12,8.79,10.12,15.62v28.65h17.64V61.27h0c0-3.01-.13-5.84-.45-8.43Z"/>
  </g>
</svg>